<svg width="652" height="664" viewBox="0 0 652 664" fill="none" xmlns="http://www.w3.org/2000/svg">
<g id="login 1">
<path id="Path 1" d="M62.7002 559.362L56.9579 536.367C46.7766 531.986 36.3601 528.191 25.758 525.001L25.0332 535.688L22.0937 523.914C8.94516 520.098 0 518.419 0 518.419C0 518.419 12.0798 565.071 37.4245 600.736L66.9535 606.003L44.0133 609.362C47.2014 613.257 50.6275 616.944 54.2715 620.403C91.1367 655.148 132.198 671.089 145.984 656.008C159.77 640.927 141.06 600.536 104.195 565.795C92.7666 555.024 78.41 546.38 64.0386 539.575L62.7002 559.362Z" fill="#38D39F"/>
<path id="Path 2" d="M117.31 534.385L124.1 511.687C117.616 502.593 110.631 493.877 103.18 485.582L97.1188 494.35L100.596 482.728C91.2811 472.564 84.4788 466.432 84.4788 466.432C84.4788 466.432 71.0729 512.709 74.6093 556.542L97.2063 576.549L75.8549 567.383C76.602 572.392 77.6585 577.347 79.0184 582.221C92.8891 631.313 119.924 666.51 139.402 660.836C158.881 655.162 163.427 610.765 149.556 561.674C145.257 546.455 137.366 531.52 128.528 518.154L117.31 534.385Z" fill="#0AA76E"/>
<path id="Path 22" d="M454.962 157.302H451.38V57.6678C451.38 50.0948 449.911 42.5959 447.057 35.5993C444.203 28.6027 440.019 22.2455 434.745 16.8905C429.471 11.5356 423.21 7.28778 416.32 4.3897C409.429 1.49162 402.044 0 394.585 0H186.684C171.621 0 157.175 6.0757 146.524 16.8905C135.873 27.7053 129.889 42.3734 129.889 57.6678V604.278C129.889 611.851 131.358 619.35 134.212 626.347C137.067 633.343 141.25 639.701 146.524 645.055C151.798 650.41 158.059 654.658 164.95 657.556C171.84 660.454 179.226 661.946 186.684 661.946H394.585C409.648 661.946 424.094 655.87 434.745 645.055C445.396 634.24 451.379 619.572 451.379 604.278V228.224H454.961L454.962 157.302Z" fill="#2F2E41"/>
<path id="Path 23" d="M396.877 14.9976H369.741C370.989 18.1045 371.465 21.4753 371.128 24.8132C370.791 28.151 369.65 31.3534 367.807 34.1382C365.963 36.923 363.474 39.2047 360.557 40.7823C357.641 42.3599 354.387 43.185 351.082 43.1849H231.978C228.674 43.1847 225.42 42.3594 222.504 40.7817C219.587 39.204 217.098 36.9222 215.255 34.1375C213.412 31.3527 212.271 28.1504 211.934 24.8127C211.597 21.475 212.073 18.1043 213.321 14.9976H187.975C176.726 14.9976 165.937 19.5349 157.983 27.6113C150.029 35.6877 145.56 46.6416 145.56 58.0634V603.88C145.56 615.302 150.029 626.256 157.983 634.332C165.937 642.409 176.726 646.946 187.975 646.946H396.877C408.126 646.946 418.914 642.409 426.868 634.332C434.822 626.256 439.291 615.302 439.291 603.88V603.88V58.0625C439.291 46.6409 434.822 35.6872 426.868 27.6109C418.914 19.5347 408.126 14.9976 396.877 14.9976V14.9976Z" fill="#8E8E8E"/>
<path id="Path 6" d="M265.806 232.423C265.805 228.608 266.794 224.86 268.674 221.556C270.553 218.252 273.256 215.51 276.511 213.604C273.258 211.696 269.567 210.691 265.81 210.691C262.053 210.69 258.362 211.694 255.108 213.601C251.854 215.509 249.152 218.252 247.273 221.556C245.394 224.859 244.405 228.607 244.405 232.422C244.405 236.237 245.394 239.984 247.273 243.288C249.152 246.592 251.854 249.335 255.108 251.242C258.362 253.15 262.053 254.153 265.81 254.153C269.567 254.152 273.258 253.148 276.511 251.24C273.257 249.334 270.553 246.592 268.674 243.289C266.795 239.986 265.805 236.238 265.806 232.423V232.423Z" fill="#CCCCCC"/>
<path id="Path 7" d="M292.711 232.423C292.711 228.608 293.7 224.86 295.579 221.556C297.458 218.252 300.162 215.51 303.417 213.604C300.163 211.696 296.473 210.691 292.715 210.691C288.958 210.69 285.267 211.694 282.013 213.601C278.759 215.509 276.057 218.252 274.179 221.556C272.3 224.859 271.311 228.607 271.311 232.422C271.311 236.237 272.3 239.984 274.179 243.288C276.057 246.592 278.759 249.335 282.013 251.242C285.267 253.15 288.958 254.153 292.715 254.153C296.473 254.152 300.163 253.148 303.417 251.24C300.162 249.334 297.459 246.592 295.58 243.289C293.7 239.986 292.711 236.238 292.711 232.423V232.423Z" fill="#CCCCCC"/>
<path id="Ellipse 1" d="M319.006 254.153C330.826 254.153 340.408 244.424 340.408 232.422C340.408 220.421 330.826 210.691 319.006 210.691C307.186 210.691 297.604 220.421 297.604 232.422C297.604 244.424 307.186 254.153 319.006 254.153Z" fill="#38D39F"/>
<path id="Path 8" d="M354.774 300.297H230.038C228.85 300.296 227.712 299.816 226.872 298.963C226.032 298.111 225.56 296.955 225.558 295.749V169.095C225.56 167.89 226.032 166.734 226.872 165.881C227.712 165.029 228.85 164.549 230.038 164.547H354.774C355.962 164.549 357.1 165.029 357.94 165.881C358.78 166.734 359.252 167.89 359.254 169.095V295.749C359.252 296.955 358.78 298.111 357.94 298.963C357.1 299.816 355.962 300.296 354.774 300.297V300.297ZM230.038 166.368C229.325 166.368 228.642 166.656 228.138 167.168C227.634 167.679 227.351 168.373 227.35 169.096V295.75C227.351 296.473 227.634 297.167 228.138 297.679C228.642 298.19 229.325 298.478 230.038 298.479H354.774C355.487 298.478 356.17 298.19 356.674 297.679C357.178 297.167 357.461 296.473 357.462 295.75V169.096C357.461 168.373 357.178 167.679 356.674 167.168C356.17 166.656 355.487 166.368 354.774 166.368H230.038Z" fill="#2F2E41"/>
<path id="Rectangle 1" d="M382.626 397.383H191.317V399.202H382.626V397.383Z" fill="#CCCCCC"/>
<path id="Ellipse 2" d="M197.359 386.024C200.696 386.024 203.401 383.278 203.401 379.89C203.401 376.502 200.696 373.755 197.359 373.755C194.022 373.755 191.317 376.502 191.317 379.89C191.317 383.278 194.022 386.024 197.359 386.024Z" fill="#38D39F"/>
<path id="Rectangle 2" d="M382.626 458.724H191.317V460.544H382.626V458.724Z" fill="#CCCCCC"/>
<path id="Ellipse 3" d="M197.359 447.366C200.696 447.366 203.401 444.62 203.401 441.232C203.401 437.844 200.696 435.097 197.359 435.097C194.022 435.097 191.317 437.844 191.317 441.232C191.317 444.62 194.022 447.366 197.359 447.366Z" fill="#38D39F"/>
<path id="Vector" d="M379.125 528.577H318.666C317.622 528.576 316.621 528.154 315.882 527.404C315.144 526.654 314.728 525.638 314.727 524.577V503.061C314.728 502.001 315.144 500.984 315.882 500.235C316.621 499.485 317.622 499.063 318.666 499.062H379.125C380.17 499.063 381.171 499.485 381.909 500.235C382.648 500.984 383.063 502.001 383.064 503.061V524.577C383.063 525.638 382.648 526.654 381.909 527.404C381.171 528.154 380.17 528.576 379.125 528.577V528.577Z" fill="#38D39F"/>
<path id="Ellipse 7" d="M217.067 386.024C220.403 386.024 223.108 383.278 223.108 379.89C223.108 376.502 220.403 373.755 217.067 373.755C213.73 373.755 211.025 376.502 211.025 379.89C211.025 383.278 213.73 386.024 217.067 386.024Z" fill="#38D39F"/>
<path id="Ellipse 8" d="M236.774 386.024C240.111 386.024 242.816 383.278 242.816 379.89C242.816 376.502 240.111 373.755 236.774 373.755C233.438 373.755 230.733 376.502 230.733 379.89C230.733 383.278 233.438 386.024 236.774 386.024Z" fill="#38D39F"/>
<path id="Ellipse 9" d="M217.067 447.366C220.403 447.366 223.108 444.62 223.108 441.232C223.108 437.844 220.403 435.097 217.067 435.097C213.73 435.097 211.025 437.844 211.025 441.232C211.025 444.62 213.73 447.366 217.067 447.366Z" fill="#38D39F"/>
<path id="Ellipse 10" d="M236.774 447.366C240.111 447.366 242.816 444.62 242.816 441.232C242.816 437.844 240.111 435.097 236.774 435.097C233.438 435.097 230.733 437.844 230.733 441.232C230.733 444.62 233.438 447.366 236.774 447.366Z" fill="#38D39F"/>
<path id="Vector_2" d="M494.288 435.032C494.717 435.231 495.13 435.465 495.523 435.732L534.784 418.717L536.185 408.216L551.873 408.119L550.946 432.203L499.126 446.118C499.017 446.484 498.886 446.843 498.734 447.192C497.985 448.815 496.78 450.178 495.271 451.108C493.761 452.038 492.015 452.495 490.251 452.421C488.487 452.347 486.784 451.745 485.356 450.691C483.927 449.637 482.838 448.179 482.223 446.498C481.609 444.817 481.497 442.99 481.902 441.245C482.307 439.5 483.211 437.916 484.5 436.691C485.789 435.466 487.405 434.655 489.147 434.36C490.888 434.065 492.677 434.298 494.288 435.032V435.032Z" fill="#FFB8B8"/>
<path id="Vector_3" d="M557.578 653.285H546.846L541.741 611.255L557.58 611.256L557.578 653.285Z" fill="#FFB8B8"/>
<path id="Vector_4" d="M539.181 650.171H559.877V663.402H526.15C526.15 659.893 527.523 656.528 529.966 654.046C532.41 651.565 535.725 650.171 539.181 650.171Z" fill="#2F2E41"/>
<path id="Vector_5" d="M599.315 650.206L588.635 651.274L579.495 609.956L595.258 608.379L599.315 650.206Z" fill="#FFB8B8"/>
<path id="Vector_6" d="M580.706 648.939L601.303 646.879L602.58 660.046L569.015 663.403C568.847 661.674 569.016 659.928 569.513 658.265C570.01 656.603 570.824 655.056 571.91 653.712C572.996 652.369 574.331 651.256 575.84 650.437C577.35 649.618 579.003 649.109 580.706 648.939Z" fill="#2F2E41"/>
<path id="Vector_7" d="M560.565 363.638C572.439 363.638 582.065 353.864 582.065 341.808C582.065 329.752 572.439 319.978 560.565 319.978C548.692 319.978 539.066 329.752 539.066 341.808C539.066 353.864 548.692 363.638 560.565 363.638Z" fill="#FFB8B8"/>
<path id="Vector_8" d="M544.448 644.785C543.526 644.787 542.633 644.459 541.926 643.858C541.218 643.257 540.743 642.421 540.584 641.499C535.029 610.191 516.872 507.819 516.438 504.984C516.428 504.918 516.424 504.852 516.424 504.786V497.154C516.424 496.876 516.509 496.604 516.669 496.378L519.068 492.967C519.182 492.803 519.331 492.668 519.505 492.572C519.678 492.475 519.871 492.421 520.069 492.412C533.743 491.761 578.528 489.853 580.691 492.598C582.864 495.356 582.097 503.714 581.921 505.361L581.929 505.533L602.049 636.182C602.207 637.224 601.954 638.287 601.345 639.141C600.737 639.995 599.822 640.571 598.798 640.746L586.231 642.848C585.295 643 584.336 642.807 583.529 642.302C582.721 641.798 582.119 641.016 581.832 640.099C577.945 627.488 564.912 585.066 560.395 568.651C560.367 568.547 560.302 568.457 560.214 568.398C560.125 568.339 560.018 568.315 559.913 568.33C559.808 568.345 559.711 568.399 559.642 568.48C559.573 568.562 559.536 568.667 559.537 568.775C559.763 584.422 560.308 624.345 560.496 638.134L560.517 639.619C560.525 640.624 560.162 641.596 559.498 642.343C558.835 643.089 557.92 643.556 556.934 643.651L544.816 644.769C544.693 644.78 544.57 644.785 544.448 644.785Z" fill="#2F2E41"/>
<path id="Path 99" d="M546.921 372.221C543.169 374.486 540.924 378.648 539.635 382.883C537.25 390.723 535.814 398.829 535.36 407.022L533.998 431.553L517.143 496.586C531.752 509.137 540.178 506.284 559.843 496.018C579.508 485.752 581.755 499.441 581.755 499.441L585.687 444.106L591.306 383.639C590.045 382.097 588.617 380.704 587.05 379.485C581.857 375.385 575.815 372.535 569.38 371.15C562.944 369.765 556.283 369.881 549.899 371.49L546.921 372.221Z" fill="#38D39F"/>
<path id="Vector_9" d="M541.446 448.166C541.899 448.339 542.339 448.549 542.76 448.792L581.58 429.063L582.224 418.375L598.237 417.254L599.096 441.618L547.218 459.038C546.794 460.883 545.827 462.553 544.446 463.826C543.065 465.1 541.334 465.916 539.485 466.166C537.636 466.417 535.755 466.09 534.094 465.229C532.432 464.368 531.068 463.013 530.183 461.346C529.297 459.679 528.933 457.777 529.138 455.894C529.343 454.011 530.108 452.237 531.331 450.806C532.554 449.375 534.176 448.356 535.983 447.885C537.79 447.413 539.695 447.511 541.446 448.166Z" fill="#FFB8B8"/>
<path id="Path 101" d="M591.025 383.916C600.576 387.339 602.258 424.422 602.258 424.422C591.022 418.147 577.538 428.415 577.538 428.415C577.538 428.415 574.728 418.717 571.357 406.167C570.339 402.637 570.218 398.902 571.003 395.312C571.789 391.721 573.457 388.39 575.852 385.63C575.852 385.63 581.473 380.491 591.025 383.916Z" fill="#38D39F"/>
<path id="Path 102" d="M579.843 347.581C577.164 345.405 573.51 349.36 573.51 349.36L571.366 329.777C571.366 329.777 557.973 331.406 549.401 329.233C540.829 327.061 539.49 337.121 539.49 337.121C539.048 333.057 538.958 328.962 539.222 324.882C539.757 319.986 546.722 315.09 559.044 311.826C571.366 308.562 577.795 322.706 577.795 322.706C586.368 327.057 582.521 349.757 579.843 347.581Z" fill="#2F2E41"/>
<g id="LOGIN">
<path d="M333.052 515.96H335.74V517.544H331V509.12H333.052V515.96Z" fill="white"/>
<path d="M340.703 517.628C339.911 517.628 339.183 517.444 338.519 517.076C337.863 516.708 337.339 516.196 336.947 515.54C336.563 514.876 336.371 514.132 336.371 513.308C336.371 512.484 336.563 511.744 336.947 511.088C337.339 510.432 337.863 509.92 338.519 509.552C339.183 509.184 339.911 509 340.703 509C341.495 509 342.219 509.184 342.875 509.552C343.539 509.92 344.059 510.432 344.435 511.088C344.819 511.744 345.011 512.484 345.011 513.308C345.011 514.132 344.819 514.876 344.435 515.54C344.051 516.196 343.531 516.708 342.875 517.076C342.219 517.444 341.495 517.628 340.703 517.628ZM340.703 515.756C341.375 515.756 341.911 515.532 342.311 515.084C342.719 514.636 342.923 514.044 342.923 513.308C342.923 512.564 342.719 511.972 342.311 511.532C341.911 511.084 341.375 510.86 340.703 510.86C340.023 510.86 339.479 511.08 339.071 511.52C338.671 511.96 338.471 512.556 338.471 513.308C338.471 514.052 338.671 514.648 339.071 515.096C339.479 515.536 340.023 515.756 340.703 515.756Z" fill="white"/>
<path d="M351.744 511.784C351.592 511.504 351.372 511.292 351.084 511.148C350.804 510.996 350.472 510.92 350.088 510.92C349.424 510.92 348.892 511.14 348.492 511.58C348.092 512.012 347.892 512.592 347.892 513.32C347.892 514.096 348.1 514.704 348.516 515.144C348.94 515.576 349.52 515.792 350.256 515.792C350.76 515.792 351.184 515.664 351.528 515.408C351.88 515.152 352.136 514.784 352.296 514.304H349.692V512.792H354.156V514.7C354.004 515.212 353.744 515.688 353.376 516.128C353.016 516.568 352.556 516.924 351.996 517.196C351.436 517.468 350.804 517.604 350.1 517.604C349.268 517.604 348.524 517.424 347.868 517.064C347.22 516.696 346.712 516.188 346.344 515.54C345.984 514.892 345.804 514.152 345.804 513.32C345.804 512.488 345.984 511.748 346.344 511.1C346.712 510.444 347.22 509.936 347.868 509.576C348.516 509.208 349.256 509.024 350.088 509.024C351.096 509.024 351.944 509.268 352.632 509.756C353.328 510.244 353.788 510.92 354.012 511.784H351.744Z" fill="white"/>
<path d="M357.345 509.12V517.544H355.293V509.12H357.345Z" fill="white"/>
<path d="M366.368 517.544H364.316L360.884 512.348V517.544H358.832V509.12H360.884L364.316 514.34V509.12H366.368V517.544Z" fill="white"/>
</g>
</g>
</svg>
